<svg xmlns="http://www.w3.org/2000/svg" viewBox="0 0 64 64"><g><path fill="none" stroke="#f86318" stroke-linecap="round" stroke-miterlimit="10" stroke-width="3" d="M42.5 32A10.5 10.5 0 1132 21.5 10.5 10.5 0 0142.5 32zM32 15.71V9.5m0 45v-6.21m11.52-27.81l4.39-4.39M16.09 47.91l4.39-4.39m0-23l-4.39-4.39m31.82 31.78l-4.39-4.39M15.71 32H9.5m45 0h-6.21"/><animateTransform attributeName="transform" dur="45s" from="0 32 32" repeatCount="indefinite" to="360 32 32" type="rotate"/></g><path d="m 31.999795,38.951395 a 4.7887315,4.8498107 0 0 0 4.788731,-4.84981 c 0,-0.559992 -0.146854,-1.097351 -0.319248,-1.597205 -1.064376,1.065019 -1.872714,1.597205 -2.426291,1.597205 2.550798,-4.52649 1.149296,-6.466415 -2.68169,-9.05298 0.319249,3.233207 -1.785239,4.703669 -2.642102,5.520378 a 4.7887315,4.8498107 0 0 0 3.2806,8.382412 z M 32.453128,27.46381 c 2.069371,1.778264 2.079587,3.160137 0.480789,5.996953 -0.485897,0.861973 0.128976,1.934104 1.10907,1.934104 0.439286,0 0.883681,-0.129328 1.352976,-0.384751 a 3.5117364,3.5565278 0 1 1 -5.802027,-3.499624 c 0.08045,-0.0763 0.488451,-0.442949 0.506329,-0.459115 0.270723,-0.245724 0.493558,-0.463642 0.71384,-0.702253 0.785352,-0.852273 1.349784,-1.797663 1.638385,-2.885314 z" fill-rule="nonzero" id="path2" style="fill:#ffffff;fill-opacity:1;stroke-width:0.642557" /></svg>
