<?xml version="1.0" encoding="UTF-8" standalone="no"?>
<svg
   enable-background="new 0 0 32 32"
   height="32"
   viewBox="0 0 32 32"
   width="32"
   version="1.1"
   id="svg22"
   sodipodi:docname="clear-day.svg"
   inkscape:version="1.2.2 (b0a8486541, 2022-12-01)"
   xmlns:inkscape="http://www.inkscape.org/namespaces/inkscape"
   xmlns:sodipodi="http://sodipodi.sourceforge.net/DTD/sodipodi-0.dtd"
   xmlns="http://www.w3.org/2000/svg"
   xmlns:svg="http://www.w3.org/2000/svg">
  <defs
     id="defs26" />
  <sodipodi:namedview
     id="namedview24"
     pagecolor="#ffffff"
     bordercolor="#000000"
     borderopacity="0.25"
     inkscape:showpageshadow="2"
     inkscape:pageopacity="0.0"
     inkscape:pagecheckerboard="0"
     inkscape:deskcolor="#d1d1d1"
     showgrid="false"
     inkscape:zoom="7.375"
     inkscape:cx="11.050847"
     inkscape:cy="16"
     inkscape:window-width="1440"
     inkscape:window-height="839"
     inkscape:window-x="0"
     inkscape:window-y="0"
     inkscape:window-maximized="1"
     inkscape:current-layer="svg22" />
  <g
     fill="#fff"
     id="g20"
     style="fill:#ffd550;fill-opacity:1">
    <path
       d="m16.167 23.833c4.411 0 8-3.589 8-8s-3.589-8-8-8-8 3.589-8 8 3.588 8 8 8zm0-15c3.86 0 7 3.14 7 7s-3.14 7-7 7-7-3.14-7-7 3.14-7 7-7z"
       id="path2"
       style="fill:#ffd550;fill-opacity:1" />
    <path
       d="m15.5 5.5c.276 0 .5-.224.5-.5v-4c0-.276-.224-.5-.5-.5s-.5.224-.5.5v4c0 .276.224.5.5.5z"
       id="path4"
       style="fill:#ffd550;fill-opacity:1" />
    <path
       d="m16 31v-4c0-.275-.224-.5-.5-.5s-.5.225-.5.5v4c0 .275.224.5.5.5s.5-.225.5-.5z"
       id="path6"
       style="fill:#ffd550;fill-opacity:1" />
    <path
       d="m5.5 16.5c0-.276-.224-.5-.5-.5h-4c-.276 0-.5.224-.5.5 0 .275.224.5.5.5h4c.276 0 .5-.225.5-.5z"
       id="path8"
       style="fill:#ffd550;fill-opacity:1" />
    <path
       d="m31 16h-4c-.275 0-.5.224-.5.5 0 .275.225.5.5.5h4c.275 0 .5-.225.5-.5 0-.276-.225-.5-.5-.5z"
       id="path10"
       style="fill:#ffd550;fill-opacity:1" />
    <path
       d="m6.08 26.793 2.829-2.829c.195-.194.195-.512 0-.707-.195-.194-.512-.194-.707 0l-2.829 2.829c-.195.195-.195.512 0 .707.098.098.226.146.354.146s.255-.048.353-.146z"
       id="path12"
       style="fill:#ffd550;fill-opacity:1" />
    <path
       d="m24.111 8.555c.128 0 .256-.049.354-.146l2.829-2.829c.195-.195.195-.512 0-.707-.194-.195-.512-.195-.707 0l-2.829 2.829c-.195.195-.195.512 0 .707.097.097.224.146.353.146z"
       id="path14"
       style="fill:#ffd550;fill-opacity:1" />
    <path
       d="m24.465 23.258c-.195-.195-.512-.195-.707 0s-.195.512 0 .707l2.829 2.829c.099.099.226.146.354.146.127 0 .256-.049.354-.146.195-.194.195-.512 0-.707z"
       id="path16"
       style="fill:#ffd550;fill-opacity:1" />
    <path
       d="m8.202 8.409c.098.098.226.146.354.146s.256-.049.354-.146c.195-.195.195-.512 0-.707l-2.83-2.829c-.195-.195-.512-.195-.707 0s-.195.512 0 .707z"
       id="path18"
       style="fill:#ffd550;fill-opacity:1" />
  </g>
</svg>
