<?xml version="1.0" encoding="UTF-8" standalone="no"?>
<svg
   enable-background="new 0 0 32 32"
   height="32"
   viewBox="0 0 32 32"
   width="32"
   version="1.1"
   id="svg19399"
   sodipodi:docname="hot-day.svg"
   inkscape:version="1.2.2 (b0a8486541, 2022-12-01)"
   xmlns:inkscape="http://www.inkscape.org/namespaces/inkscape"
   xmlns:sodipodi="http://sodipodi.sourceforge.net/DTD/sodipodi-0.dtd"
   xmlns="http://www.w3.org/2000/svg"
   xmlns:svg="http://www.w3.org/2000/svg">
  <defs
     id="defs19403" />
  <sodipodi:namedview
     id="namedview19401"
     pagecolor="#a3a3a3"
     bordercolor="#000000"
     borderopacity="0.25"
     inkscape:showpageshadow="2"
     inkscape:pageopacity="0"
     inkscape:pagecheckerboard="0"
     inkscape:deskcolor="#d1d1d1"
     showgrid="false"
     inkscape:zoom="10.429825"
     inkscape:cx="11.745164"
     inkscape:cy="21.956265"
     inkscape:window-width="1440"
     inkscape:window-height="839"
     inkscape:window-x="0"
     inkscape:window-y="0"
     inkscape:window-maximized="1"
     inkscape:current-layer="svg19399" />
  <g
     fill="#fff"
     id="g19397"
     style="fill:#ff6b1b;fill-opacity:1">
    <path
       d="m16.167 23.833c4.411 0 8-3.589 8-8s-3.589-8-8-8-8 3.589-8 8 3.588 8 8 8zm0-15c3.86 0 7 3.14 7 7s-3.14 7-7 7-7-3.14-7-7 3.14-7 7-7z"
       id="path19379"
       style="fill:#ff6b1b;fill-opacity:1" />
    <path
       d="m15.5 5.5c.276 0 .5-.224.5-.5v-4c0-.276-.224-.5-.5-.5s-.5.224-.5.5v4c0 .276.224.5.5.5z"
       id="path19381"
       style="fill:#ff6b1b;fill-opacity:1" />
    <path
       d="m16 31v-4c0-.275-.224-.5-.5-.5s-.5.225-.5.5v4c0 .275.224.5.5.5s.5-.225.5-.5z"
       id="path19383"
       style="fill:#ff6b1b;fill-opacity:1" />
    <path
       d="m5.5 16.5c0-.276-.224-.5-.5-.5h-4c-.276 0-.5.224-.5.5 0 .275.224.5.5.5h4c.276 0 .5-.225.5-.5z"
       id="path19385"
       style="fill:#ff6b1b;fill-opacity:1" />
    <path
       d="m31 16h-4c-.275 0-.5.224-.5.5 0 .275.225.5.5.5h4c.275 0 .5-.225.5-.5 0-.276-.225-.5-.5-.5z"
       id="path19387"
       style="fill:#ff6b1b;fill-opacity:1" />
    <path
       d="m6.08 26.793 2.829-2.829c.195-.194.195-.512 0-.707-.195-.194-.512-.194-.707 0l-2.829 2.829c-.195.195-.195.512 0 .707.098.098.226.146.354.146s.255-.048.353-.146z"
       id="path19389"
       style="fill:#ff6b1b;fill-opacity:1" />
    <path
       d="m24.111 8.555c.128 0 .256-.049.354-.146l2.829-2.829c.195-.195.195-.512 0-.707-.194-.195-.512-.195-.707 0l-2.829 2.829c-.195.195-.195.512 0 .707.097.097.224.146.353.146z"
       id="path19391"
       style="fill:#ff6b1b;fill-opacity:1" />
    <path
       d="m8.202 8.409c.098.098.226.146.354.146s.256-.049.354-.146c.195-.195.195-.512 0-.707l-2.83-2.829c-.195-.195-.512-.195-.707 0s-.195.512 0 .707z"
       id="path19395"
       style="fill:#ff6b1b;fill-opacity:1" />
  </g>
  <path
     d="m 25.14059,29.744063 a 3.1604674,3.1604674 0 0 0 3.160467,-3.160467 c 0,-0.364929 -0.09692,-0.715109 -0.210698,-1.040848 -0.702466,0.694039 -1.235953,1.040848 -1.601303,1.040848 1.683475,-2.94977 0.758512,-4.213957 -1.769862,-5.89954 0.210698,2.106979 -1.178222,3.065232 -1.743735,3.597455 a 3.1604674,3.1604674 0 0 0 2.165131,5.462552 z m 0.299191,-7.486094 c 1.365743,1.158838 1.372485,2.059361 0.31731,3.908024 -0.320682,0.56172 0.08512,1.260394 0.731965,1.260394 0.28992,0 0.583211,-0.08428 0.892937,-0.25073 a 2.3176761,2.3176761 0 1 1 -3.829222,-2.280594 c 0.0531,-0.04972 0.322367,-0.288656 0.334167,-0.299191 0.178671,-0.16013 0.325738,-0.30214 0.47112,-0.457635 0.518317,-0.5554 0.89083,-1.17148 1.081301,-1.880268 z"
     fill-rule="nonzero"
     id="path561"
     style="stroke-width:0.421396;stroke-dasharray:none;fill:#ff6b1b;fill-opacity:1" />
</svg>
