<?xml version="1.0" encoding="UTF-8" standalone="no"?>
<svg
   enable-background="new 0 0 100 100"
   height="70"
   viewBox="0 0 70 70"
   width="70"
   version="1.1"
   id="svg37372"
   sodipodi:docname="clear-day.svg"
   inkscape:version="1.2.2 (b0a8486541, 2022-12-01)"
   xmlns:inkscape="http://www.inkscape.org/namespaces/inkscape"
   xmlns:sodipodi="http://sodipodi.sourceforge.net/DTD/sodipodi-0.dtd"
   xmlns="http://www.w3.org/2000/svg"
   xmlns:svg="http://www.w3.org/2000/svg">
  <defs
     id="defs37376" />
  <sodipodi:namedview
     id="namedview37374"
     pagecolor="#5b5b5b"
     bordercolor="#000000"
     borderopacity="0.25"
     inkscape:showpageshadow="2"
     inkscape:pageopacity="0"
     inkscape:pagecheckerboard="0"
     inkscape:deskcolor="#d1d1d1"
     showgrid="false"
     inkscape:zoom="9.5317994"
     inkscape:cx="38.240419"
     inkscape:cy="52.980553"
     inkscape:window-width="1440"
     inkscape:window-height="839"
     inkscape:window-x="0"
     inkscape:window-y="0"
     inkscape:window-maximized="1"
     inkscape:current-layer="svg37372" />
  <path
     d="m 56.997,36.999 h -3.998 c -1.104,0 -2,-0.896 -2,-1.999 0,-1.104 0.896,-2 2,-2 h 3.998 c 1.104,0 2,0.896 2,2 0,1.104 -0.893,1.999 -2,1.999 z M 49.143,23.688 c -0.781,0.781 -2.05,0.781 -2.828,0 -0.781,-0.781 -0.781,-2.047 0,-2.828 l 2.828,-2.828 c 0.778,-0.781 2.047,-0.781 2.828,0 0.778,0.781 0.778,2.047 0,2.828 z m -14.142,23.31 c -6.627,0 -12,-5.372 -12,-11.998 0,-6.627 5.372,-11.999 12,-11.999 6.627,0 11.998,5.372 11.998,11.999 0,6.626 -5.371,11.998 -11.998,11.998 z m 0,-19.997 c -4.418,0 -8,3.581 -8,7.999 0,4.417 3.583,7.999 8,7.999 4.417,0 7.998,-3.582 7.998,-7.999 0,-4.418 -3.58,-7.999 -7.998,-7.999 z m 0,-7.999 c -1.105,0 -2,-0.896 -2,-2 v -3.999 c 0,-1.104 0.895,-2 2,-2 1.104,0 2,0.896 2,2 v 3.999 c 0,1.104 -0.897,2 -2,2 z M 20.86,23.688 18.032,20.86 c -0.781,-0.781 -0.781,-2.047 0,-2.828 0.781,-0.781 2.047,-0.781 2.828,0 l 2.828,2.828 c 0.781,0.781 0.781,2.047 0,2.828 -0.781,0.781 -2.047,0.781 -2.828,0 z M 19.002,35 c 0,1.104 -0.896,1.999 -2,1.999 h -4 c -1.104,0 -1.999,-0.896 -1.999,-1.999 0,-1.104 0.896,-2 1.999,-2 h 4 c 1.105,0 2,0.896 2,2 z m 1.858,11.312 c 0.781,-0.78 2.047,-0.78 2.828,0 0.781,0.78 0.781,2.047 0,2.828 l -2.828,2.827 c -0.781,0.781 -2.047,0.781 -2.828,0 -0.781,-0.78 -0.781,-2.047 0,-2.827 z m 14.141,4.686 c 1.104,0 2,0.895 2,1.999 v 4 c 0,1.104 -0.896,2 -2,2 -1.105,0 -2,-0.896 -2,-2 v -4 c 0,-1.104 0.895,-1.999 2,-1.999 z"
     fill="#ffffff"
     id="path37370"
     sodipodi:nodetypes="sssssssscscccsssssssssssssssssssssssssssssssscscccccsssssss" />
  <path
     d="m 50.274358,60.283 a 7.5,7.5 0 0 0 7.5,-7.5 c 0,-0.866 -0.23,-1.697 -0.5,-2.47 -1.667,1.647 -2.932999,2.47 -3.799999,2.47 3.995,-7 1.799999,-10 -4.200001,-14 0.5,5 -2.795999,7.274 -4.137999,8.537 a 7.5,7.5 0 0 0 5.137999,12.963 z m 0.71,-17.765 c 3.241,2.75 3.257,4.887 0.753,9.274 -0.761,1.333 0.202,2.991 1.737,2.991 0.688,0 1.384,-0.2 2.119,-0.595 a 5.5,5.5 0 1 1 -9.087,-5.412 c 0.126,-0.118 0.765,-0.685 0.793,-0.71 0.424,-0.38 0.773,-0.717 1.118,-1.086 1.23,-1.318 2.114,-2.78 2.566,-4.462 z"
     fill-rule="nonzero"
     id="path561"
     style="fill:#ffffff;fill-opacity:1" />
</svg>
